<svg width="656" height="228" viewBox="0 0 656 228" fill="none" xmlns="http://www.w3.org/2000/svg">
<path d="M209.51 178.618C201.888 178.618 195.862 176.661 191.433 172.747C187.005 168.833 184.79 162.653 184.79 154.208C184.79 147.204 186.232 139.427 189.116 130.879C192 122.33 196.635 114.966 203.021 108.786C209.407 102.503 217.44 99.3614 227.122 99.3614C240.306 99.3614 246.898 107.601 246.898 124.081V124.235C247.207 124.338 247.773 124.39 248.597 124.39C251.996 124.39 255.91 123.514 260.339 121.763C264.768 119.909 268.785 117.695 272.39 115.12L273.78 119.291C270.793 122.484 266.879 125.214 262.038 127.48C257.3 129.643 252.099 131.188 246.434 132.115C245.61 141.487 243.499 149.676 240.1 156.68C236.701 163.683 232.323 169.091 226.968 172.902C221.612 176.713 215.792 178.618 209.51 178.618ZM215.689 164.713C218.161 164.713 220.633 163.323 223.105 160.542C225.577 157.658 227.74 153.796 229.594 148.955C231.448 144.011 232.787 138.552 233.611 132.578C230.83 131.96 229.44 129.797 229.44 126.089C229.44 121.866 231.036 119.085 234.229 117.746C234.023 114.348 233.508 112.03 232.684 110.794C231.86 109.455 230.418 108.786 228.358 108.786C224.959 108.786 221.663 111.258 218.47 116.201C215.277 121.145 212.702 127.068 210.745 133.969C208.789 140.869 207.81 146.946 207.81 152.199C207.81 157.143 208.377 160.49 209.51 162.241C210.642 163.889 212.702 164.713 215.689 164.713ZM299.496 170.43C294.243 176.095 288.115 178.927 281.111 178.927C275.24 178.927 270.348 176.919 266.434 172.902C262.52 168.885 260.563 162.602 260.563 154.053C260.563 146.431 262.057 138.449 265.044 130.106C268.134 121.66 272.666 114.554 278.639 108.786C284.716 102.915 291.926 99.9794 300.269 99.9794C304.492 99.9794 307.633 100.7 309.693 102.142C311.753 103.584 312.783 105.49 312.783 107.859V108.168L314.328 100.752H336.575L313.092 211.062L289.763 216.624L299.496 170.43ZM291.154 163.941C293.42 163.941 295.685 162.962 297.951 161.005C300.32 159.048 302.071 156.371 303.204 152.972L311.393 114.811C310.569 111.309 308.457 109.558 305.058 109.558C300.938 109.558 297.23 111.979 293.934 116.819C290.639 121.557 288.064 127.325 286.21 134.123C284.356 140.818 283.429 146.74 283.429 151.89C283.429 157.04 284.15 160.336 285.592 161.778C287.137 163.22 288.991 163.941 291.154 163.941ZM360.728 178.927C355.784 178.927 351.767 177.382 348.677 174.292C345.69 171.202 344.196 166.567 344.196 160.387C344.196 157.812 344.608 154.465 345.432 150.345L355.938 100.752H378.186L367.062 153.281C366.753 154.826 366.598 156.268 366.598 157.606C366.598 161.829 368.143 163.941 371.233 163.941C374.117 163.941 376.589 162.756 378.649 160.387C380.709 157.915 382.357 154.568 383.593 150.345L394.099 100.752H416.346L405.223 153.281C404.811 154.826 404.605 156.474 404.605 158.224C404.605 160.284 405.068 161.778 405.995 162.705C407.025 163.529 408.673 163.941 410.939 163.941C413.823 163.941 416.295 162.705 418.355 160.233C420.518 157.761 422.217 154.465 423.453 150.345H429.942C426.131 161.469 421.393 169.039 415.728 173.056C410.166 176.97 404.553 178.927 398.888 178.927C394.459 178.927 390.906 177.691 388.228 175.219C385.653 172.747 384.108 169.091 383.593 164.25C380.091 169.915 376.383 173.777 372.469 175.837C368.658 177.897 364.745 178.927 360.728 178.927ZM453.253 178.927C445.631 178.927 439.709 176.97 435.486 173.056C431.263 169.039 429.151 162.808 429.151 154.362C429.151 147.255 430.542 139.427 433.323 130.879C436.104 122.33 440.636 114.966 446.918 108.786C453.201 102.503 461.184 99.3614 470.865 99.3614C482.195 99.3614 487.86 104.305 487.86 114.193C487.86 119.961 486.212 125.265 482.916 130.106C479.62 134.947 475.243 138.861 469.784 141.848C464.325 144.732 458.506 146.38 452.326 146.792C452.12 149.882 452.017 151.942 452.017 152.972C452.017 158.018 452.892 161.469 454.643 163.323C456.394 165.074 459.227 165.949 463.141 165.949C468.702 165.949 473.44 164.662 477.354 162.087C481.371 159.512 485.749 155.598 490.486 150.345H495.739C484.307 169.4 470.144 178.927 453.253 178.927ZM453.562 139.376C457.373 139.17 460.978 137.831 464.377 135.359C467.878 132.887 470.659 129.746 472.719 125.935C474.882 122.124 475.964 118.107 475.964 113.884C475.964 109.661 474.676 107.55 472.101 107.55C468.393 107.55 464.737 110.794 461.132 117.283C457.63 123.772 455.107 131.136 453.562 139.376ZM513.474 178.927C508.53 178.927 504.513 177.382 501.423 174.292C498.436 171.202 496.943 166.567 496.943 160.387C496.943 157.812 497.355 154.465 498.179 150.345L507.448 106.932H502.35L503.586 100.752H508.684L513.319 79.4314L536.185 76.3414L530.932 100.752H540.202L538.966 106.932H529.696L519.808 153.281C519.396 154.826 519.19 156.474 519.19 158.224C519.19 160.284 519.654 161.778 520.581 162.705C521.611 163.529 523.259 163.941 525.524 163.941C528.511 163.941 531.292 162.705 533.867 160.233C536.442 157.658 538.296 154.362 539.429 150.345H545.918C542.107 161.469 537.215 169.039 531.241 173.056C525.267 176.97 519.345 178.927 513.474 178.927ZM569.185 178.927C561.564 178.927 555.641 176.97 551.418 173.056C547.195 169.039 545.084 162.808 545.084 154.362C545.084 147.255 546.474 139.427 549.255 130.879C552.036 122.33 556.568 114.966 562.851 108.786C569.134 102.503 577.116 99.3614 586.798 99.3614C598.128 99.3614 603.793 104.305 603.793 114.193C603.793 119.961 602.145 125.265 598.849 130.106C595.553 134.947 591.175 138.861 585.716 141.848C580.258 144.732 574.438 146.38 568.258 146.792C568.052 149.882 567.949 151.942 567.949 152.972C567.949 158.018 568.825 161.469 570.576 163.323C572.327 165.074 575.159 165.949 579.073 165.949C584.635 165.949 589.373 164.662 593.287 162.087C597.304 159.512 601.681 155.598 606.419 150.345H611.672C600.239 169.4 586.077 178.927 569.185 178.927ZM569.494 139.376C573.305 139.17 576.91 137.831 580.309 135.359C583.811 132.887 586.592 129.746 588.652 125.935C590.815 122.124 591.896 118.107 591.896 113.884C591.896 109.661 590.609 107.55 588.034 107.55C584.326 107.55 580.67 110.794 577.065 117.283C573.563 123.772 571.039 131.136 569.494 139.376ZM629.097 178.927C624.153 178.927 620.137 177.382 617.047 174.292C614.06 171.099 612.566 166.361 612.566 160.078C612.566 157.503 612.978 154.156 613.802 150.036L630.333 72.6335L653.199 69.5436L635.432 152.972C635.02 154.517 634.814 156.01 634.814 157.452C634.814 161.572 636.925 163.632 641.148 163.632C643.002 163.632 644.65 163.323 646.092 162.705C645.68 167.855 643.826 171.872 640.53 174.756C637.337 177.537 633.526 178.927 629.097 178.927Z" fill="white"/>
<path d="M390.456 226.02C388.856 226.02 387.456 225.68 386.256 225C385.096 224.36 384.516 223.22 384.516 221.58C384.516 220.54 384.776 219.38 385.296 218.1C386.016 218.9 386.676 219.46 387.276 219.78C387.916 220.1 388.596 220.26 389.316 220.26C391.316 220.26 392.796 219.14 393.756 216.9C394.756 214.66 395.256 212.18 395.256 209.46C395.256 204.38 393.356 201.84 389.556 201.84C388.476 201.84 387.556 201.9 386.796 202.02L381.876 225H373.236L381.396 186.84L390.276 185.64L387.456 198.96H387.816C389.336 198.96 390.756 198.48 392.076 197.52C393.396 196.52 394.456 195.28 395.256 193.8C396.056 192.28 396.456 190.76 396.456 189.24C396.456 187.4 395.796 185.86 394.476 184.62C393.196 183.38 391.216 182.76 388.536 182.76C386.096 182.76 383.716 183.32 381.396 184.44C379.076 185.52 377.176 187.16 375.696 189.36C374.256 191.56 373.536 194.22 373.536 197.34C373.536 198.82 373.676 199.86 373.956 200.46C374.236 201.02 374.376 201.34 374.376 201.42C372.256 201.42 370.656 201 369.576 200.16C368.496 199.28 367.956 197.86 367.956 195.9C367.956 193.18 368.976 190.6 371.016 188.16C373.056 185.72 375.756 183.76 379.116 182.28C382.476 180.76 386.016 180 389.736 180C392.536 180 394.896 180.44 396.816 181.32C398.736 182.2 400.156 183.36 401.076 184.8C402.036 186.24 402.516 187.82 402.516 189.54C402.516 191.38 401.996 193.16 400.956 194.88C399.916 196.6 398.436 198 396.516 199.08C398.916 199.52 400.696 200.64 401.856 202.44C403.016 204.2 403.596 206.3 403.596 208.74C403.596 211.02 403.156 213.5 402.276 216.18C401.436 218.86 400.016 221.18 398.016 223.14C396.056 225.06 393.536 226.02 390.456 226.02ZM415.873 225.36C413.593 225.36 411.693 224.58 410.173 223.02C408.653 221.46 407.893 219.02 407.893 215.7C407.893 212.74 408.473 209.64 409.633 206.4C410.833 203.12 412.593 200.36 414.913 198.12C417.273 195.84 420.073 194.7 423.313 194.7C424.953 194.7 426.173 194.98 426.973 195.54C427.773 196.1 428.173 196.84 428.173 197.76V198.18L428.833 195H437.473L433.153 215.4C432.993 216 432.913 216.64 432.913 217.32C432.913 219.04 433.733 219.9 435.373 219.9C436.493 219.9 437.453 219.38 438.253 218.34C439.093 217.3 439.753 215.94 440.233 214.26H442.753C441.273 218.58 439.433 221.52 437.233 223.08C435.073 224.6 432.893 225.36 430.693 225.36C429.013 225.36 427.653 224.9 426.613 223.98C425.613 223.02 425.013 221.64 424.813 219.84C423.653 221.48 422.353 222.82 420.913 223.86C419.513 224.86 417.833 225.36 415.873 225.36ZM419.773 219.54C420.773 219.54 421.753 219.08 422.713 218.16C423.713 217.2 424.393 215.9 424.753 214.26L427.633 200.7C427.633 200.18 427.433 199.68 427.033 199.2C426.633 198.68 426.013 198.42 425.173 198.42C423.573 198.42 422.133 199.36 420.853 201.24C419.573 203.08 418.573 205.32 417.853 207.96C417.133 210.56 416.773 212.86 416.773 214.86C416.773 216.86 417.053 218.14 417.613 218.7C418.213 219.26 418.933 219.54 419.773 219.54ZM447.335 195H455.975L455.195 198.72C456.555 197.52 457.775 196.6 458.855 195.96C459.975 195.32 461.175 195 462.455 195C463.735 195 464.735 195.44 465.455 196.32C466.215 197.2 466.595 198.26 466.595 199.5C466.595 200.66 466.215 201.68 465.455 202.56C464.695 203.44 463.635 203.88 462.275 203.88C461.395 203.88 460.795 203.68 460.475 203.28C460.195 202.84 459.975 202.22 459.815 201.42C459.695 200.9 459.575 200.52 459.455 200.28C459.335 200.04 459.115 199.92 458.795 199.92C457.955 199.92 457.235 200.1 456.635 200.46C456.075 200.78 455.335 201.36 454.415 202.2L449.615 225H440.975L447.335 195Z" fill="white"/>
<g clip-path="url(#clip0_202_6353)">
<path fill-rule="evenodd" clip-rule="evenodd" d="M180.14 69.7421C171.137 30.0301 135.024 0.234281 91.6687 0.00137384C41.329 -0.269054 0.288197 39.4181 0.00150987 88.6452C-0.285177 137.872 40.2908 177.998 90.6305 178.268C132.911 178.495 168.631 150.535 179.155 112.41C165.524 93.172 135.707 93.8573 123.706 115.037C123.266 115.813 122.172 115.63 121.917 114.885C117.006 121.019 109.775 125.211 101.566 126.133C100.952 126.262 100.316 126.328 99.6641 126.325L98.6876 126.32C98.4521 126.324 98.2159 126.326 97.9792 126.325C97.7424 126.324 97.5063 126.32 97.2709 126.313L72.673 126.191C71.6565 126.186 70.6803 126.013 69.7709 125.697L54.0195 125.619C53.9562 131.419 53.0906 133.3 50.3766 133.287C49.279 133.282 48.0445 132.967 46.9582 132.21L46.8683 146.478C46.0869 146.474 45.5321 145.338 44.9464 144.139C44.0213 142.245 43.019 140.193 40.9253 142.192C40.3187 141.73 39.7399 141.426 39.1861 141.136C38.0482 140.539 37.0163 139.999 36.0688 138.251C35.3235 136.876 34.6616 135.366 34.0923 133.746C32.1728 133.098 30.4627 131.815 29.3416 129.995L28.4483 128.546L28.465 128.536L23.8825 121.099C24.8659 120.552 25.9187 120.215 26.9856 120.072L23.9179 115.093C25.6075 114.154 27.5019 113.832 29.321 114.054L29.3588 108.273C32.9772 108.29 36.0676 110.504 37.3753 113.644C39.1819 111.765 41.4106 110.036 44.0058 108.508C47.7788 106.286 52.2525 104.531 57.1714 103.343C59.3304 102.821 61.5566 102.414 63.8246 102.122L63.9809 77.3198L57.1596 77.2884L57.1607 77.1288C44.2584 75.7284 34.1623 64.8966 33.5841 51.7876L32.7784 51.262L33.2949 50.4115L33.558 50.5831C33.558 50.5272 33.5582 50.4713 33.5586 50.4154L60.0594 50.5371L60.0587 50.6329C61.9754 50.7869 63.8341 51.1428 65.6139 51.6793C67.2376 49.238 70.0191 47.6345 73.1681 47.6501L100.159 47.784C100.845 47.7874 101.512 47.8674 102.153 48.0159C115.659 49.7131 126.38 60.2627 128.367 73.649C142.32 89.1615 168.113 87.9051 180.14 69.7421Z" fill="white"/>
</g>
<defs>
<clipPath id="clip0_202_6353">
<rect width="180.139" height="178.27" fill="white"/>
</clipPath>
</defs>
</svg>
